<svg width="24" height="25" viewBox="0 0 24 25" fill="none" xmlns="http://www.w3.org/2000/svg">
<path opacity="0.6" d="M14.2349 1C14.4056 1.00001 14.5718 1.05521 14.7098 1.15765C14.8477 1.2601 14.9502 1.4045 15.0024 1.57007L15.8892 4.37771C16.2617 4.56336 16.6181 4.772 16.9583 5.00693L19.7898 4.38593C19.9567 4.34961 20.1307 4.36822 20.2866 4.43908C20.4425 4.50994 20.5723 4.62939 20.6573 4.78021L22.8922 8.72143C22.9775 8.87217 23.0136 9.04663 22.9954 9.21966C22.9771 9.39268 22.9054 9.55533 22.7906 9.68414L20.8476 11.8691C20.8758 12.2881 20.8758 12.7086 20.8476 13.1276L22.7906 15.3159C22.9054 15.4447 22.9771 15.6073 22.9954 15.7803C23.0136 15.9534 22.9775 16.1278 22.8922 16.2786L20.6573 20.2214C20.572 20.372 20.4421 20.4911 20.2863 20.5616C20.1304 20.6322 19.9566 20.6505 19.7898 20.6141L16.9583 19.9931C16.6197 20.2264 16.2617 20.4366 15.8909 20.6223L15.0024 23.4299C14.9502 23.5955 14.8477 23.7399 14.7098 23.8423C14.5718 23.9448 14.4056 24 14.2349 24H9.76513C9.59444 24 9.42816 23.9448 9.29023 23.8423C9.1523 23.7399 9.04984 23.5955 8.9976 23.4299L8.11237 20.6239C7.74089 20.4389 7.38258 20.2275 7.04008 19.9914L4.21022 20.6141C4.04327 20.6504 3.86932 20.6318 3.71342 20.5609C3.55752 20.4901 3.42772 20.3706 3.34272 20.2198L1.10785 16.2786C1.02251 16.1278 0.986363 15.9534 1.00462 15.7803C1.02288 15.6073 1.0946 15.4447 1.20944 15.3159L3.15245 13.1276C3.1243 12.7097 3.1243 12.2903 3.15245 11.8724L1.20944 9.68414C1.0946 9.55533 1.02288 9.39268 1.00462 9.21966C0.986363 9.04663 1.02251 8.87217 1.10785 8.72143L3.34272 4.77857C3.42796 4.62804 3.55786 4.50894 3.71374 4.43838C3.86962 4.36783 4.04345 4.34946 4.21022 4.38593L7.04008 5.00857C7.38192 4.77364 7.73989 4.56171 8.11237 4.37607L8.99922 1.57007C9.05128 1.40504 9.15325 1.26101 9.29053 1.15862C9.42782 1.05622 9.59338 1.0007 9.76352 1H14.2333H14.2349ZM13.6447 2.64286H10.3553L9.43942 5.54579L8.82185 5.853C8.51825 6.00437 8.22517 6.17672 7.94467 6.36886L7.37386 6.76314L4.44564 6.11914L2.80093 9.02371L4.80844 11.2876L4.76007 11.9841C4.7369 12.3276 4.7369 12.6724 4.76007 13.0159L4.80844 13.7124L2.79771 15.9763L4.44402 18.8809L7.37225 18.2385L7.94306 18.6311C8.22356 18.8233 8.51664 18.9956 8.82023 19.147L9.4378 19.4542L10.3553 22.3571H13.6479L14.567 19.4526L15.183 19.147C15.4863 18.996 15.7788 18.8236 16.0586 18.6311L16.6278 18.2385L19.5576 18.8809L21.2023 15.9763L19.1932 13.7124L19.2415 13.0159C19.2648 12.6718 19.2648 12.3265 19.2415 11.9825L19.1932 11.2859L21.2039 9.02371L19.5576 6.11914L16.6278 6.75986L16.0586 6.36886C15.7789 6.17634 15.4863 6.00397 15.183 5.853L14.567 5.54743L13.6463 2.64286H13.6447ZM12 7.57143C13.283 7.57143 14.5134 8.09069 15.4205 9.01497C16.3277 9.93926 16.8374 11.1929 16.8374 12.5C16.8374 13.8071 16.3277 15.0607 15.4205 15.985C14.5134 16.9093 13.283 17.4286 12 17.4286C10.717 17.4286 9.48664 16.9093 8.57946 15.985C7.67228 15.0607 7.16263 13.8071 7.16263 12.5C7.16263 11.1929 7.67228 9.93926 8.57946 9.01497C9.48664 8.09069 10.717 7.57143 12 7.57143ZM12 9.21429C11.1447 9.21429 10.3244 9.56046 9.71964 10.1766C9.11485 10.7928 8.77508 11.6286 8.77508 12.5C8.77508 13.3714 9.11485 14.2072 9.71964 14.8234C10.3244 15.4395 11.1447 15.7857 12 15.7857C12.8553 15.7857 13.6756 15.4395 14.2804 14.8234C14.8851 14.2072 15.2249 13.3714 15.2249 12.5C15.2249 11.6286 14.8851 10.7928 14.2804 10.1766C13.6756 9.56046 12.8553 9.21429 12 9.21429Z" fill="#212121" stroke="#212121" stroke-width="0.5"/>
</svg>
