<svg width="28" height="26" viewBox="0 0 28 26" fill="none" xmlns="http://www.w3.org/2000/svg">
<path d="M13.9993 7.5065L15.2927 10.5598L15.9193 12.0398L17.5193 12.1732L20.8127 12.4532L18.306 14.6265L17.0927 15.6798L17.4527 17.2532L18.1993 20.4665L15.3727 18.7598L13.9993 17.9065L12.626 18.7332L9.79935 20.4398L10.546 17.2265L10.906 15.6532L9.69268 14.5998L7.18602 12.4265L10.4793 12.1465L12.0793 12.0132L12.706 10.5332L13.9993 7.5065ZM13.9993 0.666504L10.2527 9.5065L0.666016 10.3198L7.94602 16.6265L5.75935 25.9998L13.9993 21.0265L22.2393 25.9998L20.0527 16.6265L27.3327 10.3198L17.746 9.5065L13.9993 0.666504Z" fill="#303030"/>
</svg>
